<?xml version="1.0" encoding="UTF-8" standalone="no"?>
<!DOCTYPE svg PUBLIC "-//W3C//DTD SVG 1.1//EN"
 "http://www.w3.org/Graphics/SVG/1.1/DTD/svg11.dtd">
<!-- Generated by graphviz version 2.40.1 (20161225.0304)
 -->
<!-- Title: G Pages: 1 -->
<svg width="579pt" height="254pt"
 viewBox="0.00 0.00 578.63 254.00" xmlns="http://www.w3.org/2000/svg" xmlns:xlink="http://www.w3.org/1999/xlink">
<g id="graph0" class="graph" transform="scale(1 1) rotate(0) translate(4 250)">
<title>G</title>
<polygon fill="#ffffff" stroke="transparent" points="-4,4 -4,-250 574.6337,-250 574.6337,4 -4,4"/>
<g id="clust1" class="cluster">
<title>cluster_Global</title>
<path fill="none" stroke="#c0c0c0" d="M329.6069,-8C329.6069,-8 550.6337,-8 550.6337,-8 556.6337,-8 562.6337,-14 562.6337,-20 562.6337,-20 562.6337,-226 562.6337,-226 562.6337,-232 556.6337,-238 550.6337,-238 550.6337,-238 329.6069,-238 329.6069,-238 323.6069,-238 317.6069,-232 317.6069,-226 317.6069,-226 317.6069,-20 317.6069,-20 317.6069,-14 323.6069,-8 329.6069,-8"/>
<text text-anchor="middle" x="440.1203" y="-225.2" font-family="Times,serif" font-size="11.00" fill="#c0c0c0">Global</text>
</g>
<g id="clust2" class="cluster">
<title>cluster_\AustinHeap</title>
<path fill="none" stroke="#c0c0c0" d="M337.6069,-16C337.6069,-16 542.6337,-16 542.6337,-16 548.6337,-16 554.6337,-22 554.6337,-28 554.6337,-28 554.6337,-199 554.6337,-199 554.6337,-205 548.6337,-211 542.6337,-211 542.6337,-211 337.6069,-211 337.6069,-211 331.6069,-211 325.6069,-205 325.6069,-199 325.6069,-199 325.6069,-28 325.6069,-28 325.6069,-22 331.6069,-16 337.6069,-16"/>
<text text-anchor="middle" x="440.1203" y="-198.2" font-family="Times,serif" font-size="11.00" fill="#c0c0c0">AustinHeap</text>
</g>
<g id="clust3" class="cluster">
<title>cluster_\AustinHeap\Database</title>
<path fill="none" stroke="#c0c0c0" d="M345.6069,-24C345.6069,-24 534.6337,-24 534.6337,-24 540.6337,-24 546.6337,-30 546.6337,-36 546.6337,-36 546.6337,-172 546.6337,-172 546.6337,-178 540.6337,-184 534.6337,-184 534.6337,-184 345.6069,-184 345.6069,-184 339.6069,-184 333.6069,-178 333.6069,-172 333.6069,-172 333.6069,-36 333.6069,-36 333.6069,-30 339.6069,-24 345.6069,-24"/>
<text text-anchor="middle" x="440.1203" y="-171.2" font-family="Times,serif" font-size="11.00" fill="#c0c0c0">Database</text>
</g>
<g id="clust4" class="cluster">
<title>cluster_\AustinHeap\Database\Encryption</title>
<path fill="none" stroke="#c0c0c0" d="M353.6069,-32C353.6069,-32 526.6337,-32 526.6337,-32 532.6337,-32 538.6337,-38 538.6337,-44 538.6337,-44 538.6337,-145 538.6337,-145 538.6337,-151 532.6337,-157 526.6337,-157 526.6337,-157 353.6069,-157 353.6069,-157 347.6069,-157 341.6069,-151 341.6069,-145 341.6069,-145 341.6069,-44 341.6069,-44 341.6069,-38 347.6069,-32 353.6069,-32"/>
<text text-anchor="middle" x="440.1203" y="-144.2" font-family="Times,serif" font-size="11.00" fill="#c0c0c0">Encryption</text>
</g>
<!-- \\AustinHeap\\Database\\Encryption\\EncryptionFacade -->
<g id="node1" class="node">
<title>\\AustinHeap\\Database\\Encryption\\EncryptionFacade</title>
<polygon fill="none" stroke="#000000" points="500.7381,-130 379.5025,-130 379.5025,-94 500.7381,-94 500.7381,-130"/>
<text text-anchor="middle" x="440.1203" y="-108.7" font-family="Courier,monospace" font-size="11.00" fill="#000000">EncryptionFacade</text>
</g>
<!-- \\Illuminate\\Support\\Facades\\Facade -->
<g id="node3" class="node">
<title>\\Illuminate\\Support\\Facades\\Facade</title>
<ellipse fill="none" stroke="#000000" cx="138.8034" cy="-112" rx="137.6208" ry="18"/>
<text text-anchor="middle" x="138.8034" y="-107.8" font-family="Times,serif" font-size="14.00" fill="#c0c0c0">\Illuminate\Support\Facades\Facade</text>
</g>
<!-- \\AustinHeap\\Database\\Encryption\\EncryptionFacade&#45;&gt;\\Illuminate\\Support\\Facades\\Facade -->
<g id="edge1" class="edge">
<title>\\AustinHeap\\Database\\Encryption\\EncryptionFacade&#45;&gt;\\Illuminate\\Support\\Facades\\Facade</title>
<path fill="none" stroke="#000000" d="M379.1443,-112C352.3394,-112 319.5795,-112 286.9749,-112"/>
<polygon fill="none" stroke="#000000" points="286.868,-108.5001 276.868,-112 286.8679,-115.5001 286.868,-108.5001"/>
</g>
<!-- \\AustinHeap\\Database\\Encryption\\EncryptionServiceProvider -->
<g id="node2" class="node">
<title>\\AustinHeap\\Database\\Encryption\\EncryptionServiceProvider</title>
<polygon fill="none" stroke="#000000" points="530.6472,-76 349.5934,-76 349.5934,-40 530.6472,-40 530.6472,-76"/>
<text text-anchor="middle" x="440.1203" y="-54.7" font-family="Courier,monospace" font-size="11.00" fill="#000000">EncryptionServiceProvider</text>
</g>
<!-- \\Illuminate\\Support\\ServiceProvider -->
<g id="node4" class="node">
<title>\\Illuminate\\Support\\ServiceProvider</title>
<ellipse fill="none" stroke="#000000" cx="138.8034" cy="-58" rx="138.6071" ry="18"/>
<text text-anchor="middle" x="138.8034" y="-53.8" font-family="Times,serif" font-size="14.00" fill="#c0c0c0">\Illuminate\Support\ServiceProvider</text>
</g>
<!-- \\AustinHeap\\Database\\Encryption\\EncryptionServiceProvider&#45;&gt;\\Illuminate\\Support\\ServiceProvider -->
<g id="edge2" class="edge">
<title>\\AustinHeap\\Database\\Encryption\\EncryptionServiceProvider&#45;&gt;\\Illuminate\\Support\\ServiceProvider</title>
<path fill="none" stroke="#000000" d="M349.3067,-58C329.9478,-58 309.0148,-58 288.1163,-58"/>
<polygon fill="none" stroke="#000000" points="287.8669,-54.5001 277.8668,-58 287.8668,-61.5001 287.8669,-54.5001"/>
</g>
</g>
</svg>
